<svg xmlns="http://www.w3.org/2000/svg" width="1280" height="320" viewBox="0 0 1280 320">
  <defs>
    <linearGradient id="bg" x1="0" y1="0" x2="1" y2="1">
      <stop offset="0%" stop-color="#0D1117"/>
      <stop offset="60%" stop-color="#0F1620"/>
      <stop offset="100%" stop-color="#131C2B"/>
    </linearGradient>
    <linearGradient id="accent" x1="0" y1="0" x2="1" y2="0">
      <stop offset="0%" stop-color="#2F81F7"/>
      <stop offset="100%" stop-color="#1F6FEB" stop-opacity="0"/>
    </linearGradient>
    <pattern id="grid" width="32" height="32" patternUnits="userSpaceOnUse">
      <path d="M32 0H0V32" fill="none" stroke="#2F81F7" stroke-opacity="0.07" stroke-width="1"/>
    </pattern>
    <radialGradient id="glow" cx="0.78" cy="0.5" r="0.55">
      <stop offset="0%" stop-color="#2F81F7" stop-opacity="0.16"/>
      <stop offset="100%" stop-color="#2F81F7" stop-opacity="0"/>
    </radialGradient>
  </defs>

  <rect width="1280" height="320" fill="url(#bg)"/>
  <rect width="1280" height="320" fill="url(#grid)"/>
  <rect width="1280" height="320" fill="url(#glow)"/>

  <!-- node graph motif, right side: agent loop -->
  <g stroke="#2F81F7" stroke-opacity="0.5" fill="none" stroke-width="1.5">
    <path d="M960 120 L1060 96 M1060 96 L1150 140 M1150 140 L1090 216 M1090 216 L985 205 M985 205 L960 120 M1060 96 L1090 216 M960 120 L1150 140"/>
  </g>
  <g fill="#0D1117" stroke="#58A6FF" stroke-width="2">
    <circle cx="960" cy="120" r="7"/>
    <circle cx="1060" cy="96" r="7"/>
    <circle cx="1150" cy="140" r="7"/>
    <circle cx="1090" cy="216" r="7"/>
    <circle cx="985" cy="205" r="7"/>
  </g>
  <circle cx="1060" cy="96" r="13" fill="none" stroke="#58A6FF" stroke-opacity="0.35" stroke-width="1.5"/>
  <circle cx="1090" cy="216" r="13" fill="none" stroke="#58A6FF" stroke-opacity="0.35" stroke-width="1.5"/>

  <!-- accent rule -->
  <rect x="88" y="108" width="220" height="3" fill="url(#accent)" rx="1.5"/>

  <text x="88" y="176" font-family="'Helvetica Neue',Helvetica,Arial,sans-serif" font-size="52" font-weight="600" fill="#E6EDF3" letter-spacing="-0.5">Sai Mohan Raja Reddy</text>

  <text x="88" y="218" font-family="'SF Mono',Menlo,Consolas,monospace" font-size="20" fill="#58A6FF" letter-spacing="0.5">AI Engineer</text>
  <text x="228" y="218" font-family="'SF Mono',Menlo,Consolas,monospace" font-size="20" fill="#484F58">·</text>
  <text x="248" y="218" font-family="'SF Mono',Menlo,Consolas,monospace" font-size="20" fill="#8B949E" letter-spacing="0.5">Agentic Systems &#183; RAG Pipelines</text>

  <text x="88" y="256" font-family="'Helvetica Neue',Helvetica,Arial,sans-serif" font-size="16" fill="#6E7681">Building agent runtimes that fail safely.</text>
</svg>
